<?xml version="1.0" standalone="no"?><!DOCTYPE svg PUBLIC "-//W3C//DTD SVG 1.1//EN" "http://www.w3.org/Graphics/SVG/1.1/DTD/svg11.dtd"><svg t="1624517870981" class="icon" viewBox="0 0 1024 1024" version="1.1" xmlns="http://www.w3.org/2000/svg" p-id="3714" xmlns:xlink="http://www.w3.org/1999/xlink" width="200" height="200"><defs><style type="text/css"></style></defs><path d="M808.96 445.44H215.04c-33.792 0-61.44 27.648-61.44 61.44v368.64c0 33.792 27.648 61.44 61.44 61.44h593.92c33.792 0 61.44-27.648 61.44-61.44V506.88c0-33.792-27.648-61.44-61.44-61.44z m-296.96 421.376c-48.128 0-87.04-38.912-87.04-87.04 0-36.352 22.016-67.584 53.76-80.384v-132.096c0-18.432 14.848-33.28 33.28-33.28s33.28 14.848 33.28 33.28v132.096c31.744 13.312 53.76 44.032 53.76 80.384 0 48.128-38.912 87.04-87.04 87.04z" p-id="3715" fill="#707070"></path><path d="M744.448 448.512h-66.56V318.976c0-91.648-74.24-165.888-165.888-165.888S346.112 227.84 346.112 318.976v129.536h-66.56V318.976C279.552 190.976 384 87.04 512 87.04s232.448 104.448 232.448 232.448v129.024z" p-id="3716" fill="#707070"></path></svg>